# MagicaVoxel @ Ephtracy

# group
o 

# material
mtllib room-0.mtl
usemtl palette

# normals
vn -1 0 0
vn 1 0 0
vn 0 0 1
vn 0 0 -1
vn 0 -1 0
vn 0 1 0

# texcoords
vt 0.00585938 0.5
vt 0.0527344 0.5
vt 0.255859 0.5
vt 0.314453 0.5
vt 0.345703 0.5
vt 0.572266 0.5
vt 0.591797 0.5

# verts
v 0.3 1.6 -0.9
v 0.3 1.6 -7.1
v 0.3 3.1 -0.9
v 0.3 3.1 -7.1
v 0.5 0.2 1.1
v 0.5 0.2 0.7
v 0.5 0.2 -6.6
v 0.5 0.2 -7.1
v 0.5 1.3 0.7
v 0.5 1.3 -6.6
v 0.5 1.6 -0.9
v 0.5 1.6 -7.1
v 0.5 2 1.1
v 0.5 2 -0.9
v 0.6 2 1.1
v 0.6 2 -0.9
v 0.6 2.7 1.1
v 0.6 2.7 -0.9
v 1.8 2.7 0.8
v 1.8 2.7 -0.3
v 1.8 3 0.8
v 1.8 3 -0.3
v 3.3 0.3 4.5
v 3.3 0.3 1.1
v 3.3 1.1 4.3
v 3.3 1.1 1.3
v 3.3 2 1.1
v 3.3 2.7 1.1
v 3.3 3.3 4.3
v 3.3 3.3 1.3
v 3.3 3.9 4.3
v 3.3 3.9 1.3
v 3.3 5.9 4.3
v 3.3 5.9 1.3
v 3.3 6.5 4.3
v 3.3 6.5 1.3
v 3.3 8.3 4.3
v 3.3 8.3 1.3
v 3.3 8.7 4.5
v 3.3 8.7 1.1
v 5.3 0.2 0.7
v 5.3 0.2 -6.6
v 5.3 1.3 0.7
v 5.3 1.3 -6.6
v 5.5 1.1 4.3
v 5.5 1.1 1.3
v 5.5 3.3 4.3
v 5.5 3.3 1.3
v 5.5 3.9 4.3
v 5.5 3.9 1.3
v 5.5 5.9 4.3
v 5.5 5.9 1.3
v 5.5 6.5 4.3
v 5.5 6.5 1.3
v 5.5 8.3 4.3
v 5.5 8.3 1.3
v 0.4 2.8 -7
v 0.4 2.8 -7.1
v 0.4 3.1 -7
v 0.4 3.1 -7.1
v 4.7 2.7 0.8
v 4.7 2.7 0.7
v 4.7 2.7 -0.2
v 4.7 2.7 -0.3
v 4.7 2.9 0.7
v 4.7 2.9 -0.2
v 4.7 3 0.8
v 4.7 3 -0.3
v 5.6 2.7 -0.9
v 5.6 2.7 -7.1
v 5.6 2.8 -0.9
v 5.6 2.8 -7
v 5.6 2.8 -7.1
v 5.7 0.2 1.1
v 5.7 0.2 1
v 5.7 0.2 -7.1
v 5.7 0.3 4.5
v 5.7 0.3 1.1
v 5.7 0.3 1
v 5.7 1.1 4.3
v 5.7 1.1 1.3
v 5.7 1.8 1.1
v 5.7 1.8 -7.1
v 5.7 2.6 1.1
v 5.7 2.6 -7.1
v 5.7 2.7 1.2
v 5.7 2.7 1.1
v 5.7 2.7 -7.1
v 5.7 3.3 4.3
v 5.7 3.3 1.3
v 5.7 8.6 4.5
v 5.7 8.6 1.2
v 5.7 8.7 4.5
v 5.7 8.7 1.1
v 6.3 2.8 -0.9
v 6.3 2.8 -7
v 6.3 3.1 -0.9
v 6.3 3.1 -7
v 3.3 0.3 4.5
v 3.3 8.7 4.5
v 3.4 0.3 4.5
v 3.4 8.6 4.5
v 5.7 0.3 4.5
v 5.7 8.6 4.5
v 5.7 8.7 4.5
v 3.3 1.1 1.3
v 3.3 3.3 1.3
v 3.3 3.9 1.3
v 3.3 5.9 1.3
v 3.3 6.5 1.3
v 3.3 8.3 1.3
v 5.5 1.1 1.3
v 5.5 3.3 1.3
v 5.5 3.9 1.3
v 5.5 5.9 1.3
v 5.5 6.5 1.3
v 5.5 8.3 1.3
v 0.5 0.2 1.1
v 0.5 2 1.1
v 0.6 2 1.1
v 0.6 2.7 1.1
v 3.3 0.3 1.1
v 3.3 2 1.1
v 3.3 2.7 1.1
v 3.4 0.3 1.1
v 5.7 0.2 1.1
v 5.7 0.3 1.1
v 1.8 2.7 0.8
v 1.8 3 0.8
v 4.7 2.7 0.8
v 4.7 3 0.8
v 0.3 1.6 -0.9
v 0.3 3.1 -0.9
v 0.5 1.6 -0.9
v 0.5 2 -0.9
v 0.6 2 -0.9
v 0.6 2.7 -0.9
v 5.6 2.7 -0.9
v 5.6 2.8 -0.9
v 6.3 2.8 -0.9
v 6.3 3.1 -0.9
v 0.5 0.2 -6.6
v 0.5 1.3 -6.6
v 5.3 0.2 -6.6
v 5.3 1.3 -6.6
v 3.3 1.1 4.3
v 3.3 3.3 4.3
v 3.3 3.9 4.3
v 3.3 5.9 4.3
v 3.3 6.5 4.3
v 3.3 8.3 4.3
v 5.5 1.1 4.3
v 5.5 3.3 4.3
v 5.5 3.9 4.3
v 5.5 5.9 4.3
v 5.5 6.5 4.3
v 5.5 8.3 4.3
v 3.3 2.7 1.1
v 3.3 8.7 1.1
v 5.7 2.7 1.1
v 5.7 8.7 1.1
v 0.5 0.2 0.7
v 0.5 1.3 0.7
v 5.3 0.2 0.7
v 5.3 1.3 0.7
v 1.8 2.7 -0.3
v 1.8 3 -0.3
v 4.7 2.7 -0.3
v 4.7 3 -0.3
v 0.4 2.8 -7
v 0.4 3.1 -7
v 5.6 2.8 -7
v 6.3 2.8 -7
v 6.3 3.1 -7
v 0.3 1.6 -7.1
v 0.3 3.1 -7.1
v 0.4 2.8 -7.1
v 0.4 3.1 -7.1
v 0.5 0.2 -7.1
v 0.5 1.6 -7.1
v 0.5 2 -7.1
v 0.6 0.2 -7.1
v 0.6 1.8 -7.1
v 0.6 2 -7.1
v 0.6 2.6 -7.1
v 0.6 2.7 -7.1
v 5.6 2.7 -7.1
v 5.6 2.8 -7.1
v 5.7 0.2 -7.1
v 5.7 1.8 -7.1
v 5.7 2.6 -7.1
v 5.7 2.7 -7.1
v 0.5 0.2 1.1
v 5.7 0.2 1.1
v 0.6 0.2 1
v 5.7 0.2 1
v 0.6 0.2 0.8
v 5.3 0.2 0.8
v 0.5 0.2 0.7
v 5.3 0.2 0.7
v 5.4 0.2 0.7
v 0.5 0.2 -6.6
v 5.3 0.2 -6.6
v 5.4 0.2 -6.6
v 0.6 0.2 -6.7
v 5.3 0.2 -6.7
v 0.5 0.2 -7.1
v 0.6 0.2 -7.1
v 5.7 0.2 -7.1
v 3.3 0.3 4.5
v 3.4 0.3 4.5
v 5.7 0.3 4.5
v 3.3 0.3 1.1
v 3.4 0.3 1.1
v 5.7 0.3 1.1
v 0.5 1.3 0.7
v 5.3 1.3 0.7
v 4.4 1.3 0.2
v 4.5 1.3 0.2
v 4.4 1.3 0.1
v 4.5 1.3 0.1
v 0.5 1.3 -6.6
v 5.3 1.3 -6.6
v 0.3 1.6 -0.9
v 0.5 1.6 -0.9
v 0.3 1.6 -7.1
v 0.5 1.6 -7.1
v 5.6 2.8 -0.9
v 6.3 2.8 -0.9
v 5.6 2.8 -7
v 6.3 2.8 -7
v 3.3 3.3 4.3
v 5.5 3.3 4.3
v 3.3 3.3 1.3
v 5.5 3.3 1.3
v 3.3 5.9 4.3
v 5.5 5.9 4.3
v 3.3 5.9 1.3
v 5.5 5.9 1.3
v 3.3 8.3 4.3
v 5.5 8.3 4.3
v 3.3 8.3 1.3
v 5.5 8.3 1.3
v 3.3 1.1 4.3
v 5.5 1.1 4.3
v 3.3 1.1 1.3
v 5.5 1.1 1.3
v 0.5 2 1.1
v 0.6 2 1.1
v 0.5 2 -0.9
v 0.6 2 -0.9
v 0.6 2.7 1.1
v 3.3 2.7 1.1
v 5.7 2.7 1.1
v 1.8 2.7 0.8
v 4.7 2.7 0.8
v 4.7 2.7 0.7
v 4.7 2.7 -0.2
v 1.8 2.7 -0.3
v 4.7 2.7 -0.3
v 0.6 2.7 -0.9
v 5.6 2.7 -0.9
v 5.6 2.7 -7.1
v 5.7 2.7 -7.1
v 0.4 2.8 -7
v 5.6 2.8 -7
v 0.4 2.8 -7.1
v 5.6 2.8 -7.1
v 1.8 3 0.8
v 4.7 3 0.8
v 1.8 3 -0.3
v 4.7 3 -0.3
v 0.3 3.1 -0.9
v 6.3 3.1 -0.9
v 0.4 3.1 -7
v 6.3 3.1 -7
v 0.3 3.1 -7.1
v 0.4 3.1 -7.1
v 3.3 3.9 4.3
v 5.5 3.9 4.3
v 3.3 3.9 1.3
v 5.5 3.9 1.3
v 3.3 6.5 4.3
v 5.5 6.5 4.3
v 3.3 6.5 1.3
v 5.5 6.5 1.3
v 3.3 8.7 4.5
v 5.7 8.7 4.5
v 3.3 8.7 1.1
v 5.7 8.7 1.1

# faces
f 3/7/1 2/7/1 1/7/1
f 4/7/1 2/7/1 3/7/1
f 9/5/1 6/5/1 5/5/1
f 10/5/1 8/5/1 7/5/1
f 11/5/1 10/5/1 9/5/1
f 12/5/1 8/5/1 10/5/1
f 12/5/1 10/5/1 11/5/1
f 13/5/1 9/5/1 5/5/1
f 13/5/1 11/5/1 9/5/1
f 14/5/1 11/5/1 13/5/1
f 17/6/1 16/6/1 15/6/1
f 18/6/1 16/6/1 17/6/1
f 21/6/1 20/6/1 19/6/1
f 22/6/1 20/6/1 21/6/1
f 25/3/1 24/3/1 23/3/1
f 26/3/1 24/3/1 25/3/1
f 27/3/1 24/3/1 26/3/1
f 28/3/1 27/3/1 26/3/1
f 29/3/1 25/3/1 23/3/1
f 30/3/1 28/3/1 26/3/1
f 31/3/1 29/3/1 23/3/1
f 31/3/1 30/3/1 29/3/1
f 32/3/1 28/3/1 30/3/1
f 32/3/1 30/3/1 31/3/1
f 33/3/1 31/3/1 23/3/1
f 34/3/1 28/3/1 32/3/1
f 35/3/1 33/3/1 23/3/1
f 35/3/1 34/3/1 33/3/1
f 36/3/1 28/3/1 34/3/1
f 36/3/1 34/3/1 35/3/1
f 37/3/1 35/3/1 23/3/1
f 38/3/1 28/3/1 36/3/1
f 39/3/1 37/3/1 23/3/1
f 39/3/1 38/3/1 37/3/1
f 40/3/1 28/3/1 38/3/1
f 40/3/1 38/3/1 39/3/1
f 43/5/1 42/5/1 41/5/1
f 44/5/1 42/5/1 43/5/1
f 47/3/1 46/3/1 45/3/1
f 48/3/1 46/3/1 47/3/1
f 51/3/1 50/3/1 49/3/1
f 52/3/1 50/3/1 51/3/1
f 55/3/1 54/3/1 53/3/1
f 56/3/1 54/3/1 55/3/1
f 57/7/2 58/7/2 59/7/2
f 59/7/2 58/7/2 60/7/2
f 61/6/2 62/6/2 65/6/2
f 62/4/2 63/4/2 65/4/2
f 63/6/2 64/6/2 66/6/2
f 65/4/2 63/4/2 66/4/2
f 61/6/2 65/6/2 67/6/2
f 65/6/2 66/6/2 67/6/2
f 66/6/2 64/6/2 68/6/2
f 67/6/2 66/6/2 68/6/2
f 69/7/2 70/7/2 71/7/2
f 71/7/2 70/7/2 72/7/2
f 72/7/2 70/7/2 73/7/2
f 74/5/2 75/5/2 78/5/2
f 75/1/2 76/1/2 79/1/2
f 78/5/2 75/5/2 79/5/2
f 77/1/2 78/1/2 80/1/2
f 78/1/2 79/1/2 80/1/2
f 80/1/2 79/1/2 81/1/2
f 81/1/2 79/1/2 82/1/2
f 79/1/2 76/1/2 83/1/2
f 82/1/2 79/1/2 83/1/2
f 81/1/2 82/1/2 84/1/2
f 82/2/2 83/2/2 84/2/2
f 84/2/2 83/2/2 85/2/2
f 81/1/2 84/1/2 86/1/2
f 84/6/2 85/6/2 87/6/2
f 86/1/2 84/1/2 87/1/2
f 87/6/2 85/6/2 88/6/2
f 77/1/2 80/1/2 89/1/2
f 80/3/2 81/3/2 89/3/2
f 81/1/2 86/1/2 90/1/2
f 89/3/2 81/3/2 90/3/2
f 77/1/2 89/1/2 91/1/2
f 89/1/2 90/1/2 91/1/2
f 86/3/2 87/3/2 92/3/2
f 91/1/2 90/1/2 92/1/2
f 90/1/2 86/1/2 92/1/2
f 91/3/2 92/3/2 93/3/2
f 92/3/2 87/3/2 94/3/2
f 93/3/2 92/3/2 94/3/2
f 95/7/2 96/7/2 97/7/2
f 97/7/2 96/7/2 98/7/2
f 101/3/3 100/3/3 99/3/3
f 102/3/3 100/3/3 101/3/3
f 103/1/3 102/1/3 101/1/3
f 104/3/3 100/3/3 102/3/3
f 104/1/3 102/1/3 103/1/3
f 105/3/3 100/3/3 104/3/3
f 112/3/3 107/3/3 106/3/3
f 113/3/3 107/3/3 112/3/3
f 114/3/3 109/3/3 108/3/3
f 115/3/3 109/3/3 114/3/3
f 116/3/3 111/3/3 110/3/3
f 117/3/3 111/3/3 116/3/3
f 120/5/3 119/5/3 118/5/3
f 122/5/3 120/5/3 118/5/3
f 123/6/3 121/6/3 120/6/3
f 123/5/3 120/5/3 122/5/3
f 124/6/3 121/6/3 123/6/3
f 125/5/3 122/5/3 118/5/3
f 126/5/3 125/5/3 118/5/3
f 127/5/3 125/5/3 126/5/3
f 130/6/3 129/6/3 128/6/3
f 131/6/3 129/6/3 130/6/3
f 134/7/3 133/7/3 132/7/3
f 135/7/3 133/7/3 134/7/3
f 136/7/3 133/7/3 135/7/3
f 137/7/3 133/7/3 136/7/3
f 138/7/3 133/7/3 137/7/3
f 139/7/3 133/7/3 138/7/3
f 140/7/3 133/7/3 139/7/3
f 141/7/3 133/7/3 140/7/3
f 144/5/3 143/5/3 142/5/3
f 145/5/3 143/5/3 144/5/3
f 146/3/4 147/3/4 152/3/4
f 152/3/4 147/3/4 153/3/4
f 148/3/4 149/3/4 154/3/4
f 154/3/4 149/3/4 155/3/4
f 150/3/4 151/3/4 156/3/4
f 156/3/4 151/3/4 157/3/4
f 158/3/4 159/3/4 160/3/4
f 160/3/4 159/3/4 161/3/4
f 162/5/4 163/5/4 164/5/4
f 164/5/4 163/5/4 165/5/4
f 166/6/4 167/6/4 168/6/4
f 168/6/4 167/6/4 169/6/4
f 170/7/4 171/7/4 172/7/4
f 172/7/4 171/7/4 173/7/4
f 173/7/4 171/7/4 174/7/4
f 175/7/4 176/7/4 177/7/4
f 177/7/4 176/7/4 178/7/4
f 175/7/4 177/7/4 180/7/4
f 180/7/4 177/7/4 181/7/4
f 179/5/4 180/5/4 182/5/4
f 180/5/4 181/5/4 182/5/4
f 182/5/4 181/5/4 183/5/4
f 181/7/4 177/7/4 184/7/4
f 183/5/4 181/5/4 184/5/4
f 184/7/4 177/7/4 185/7/4
f 185/7/4 177/7/4 186/7/4
f 185/6/4 186/6/4 187/6/4
f 186/7/4 177/7/4 187/7/4
f 187/7/4 177/7/4 188/7/4
f 182/1/4 183/1/4 189/1/4
f 183/2/4 184/2/4 190/2/4
f 189/1/4 183/1/4 190/1/4
f 184/2/4 185/2/4 190/2/4
f 185/6/4 187/6/4 191/6/4
f 190/2/4 185/2/4 191/2/4
f 191/6/4 187/6/4 192/6/4
f 195/5/5 194/5/5 193/5/5
f 196/5/5 194/5/5 195/5/5
f 197/5/5 195/5/5 193/5/5
f 197/1/5 196/1/5 195/1/5
f 198/1/5 196/1/5 197/1/5
f 199/5/5 197/5/5 193/5/5
f 199/5/5 198/5/5 197/5/5
f 200/1/5 196/1/5 198/1/5
f 200/5/5 198/5/5 199/5/5
f 201/1/5 196/1/5 200/1/5
f 203/5/5 201/5/5 200/5/5
f 204/1/5 196/1/5 201/1/5
f 204/5/5 201/5/5 203/5/5
f 205/5/5 203/5/5 202/5/5
f 206/1/5 204/1/5 203/1/5
f 206/5/5 203/5/5 205/5/5
f 207/5/5 205/5/5 202/5/5
f 208/1/5 206/1/5 205/1/5
f 208/5/5 205/5/5 207/5/5
f 209/1/5 196/1/5 204/1/5
f 209/1/5 206/1/5 208/1/5
f 209/1/5 204/1/5 206/1/5
f 213/3/5 211/3/5 210/3/5
f 214/1/5 212/1/5 211/1/5
f 214/3/5 211/3/5 213/3/5
f 215/1/5 212/1/5 214/1/5
f 218/5/5 217/5/5 216/5/5
f 219/5/5 217/5/5 218/5/5
f 220/5/5 218/5/5 216/5/5
f 220/1/5 219/1/5 218/1/5
f 221/5/5 217/5/5 219/5/5
f 221/1/5 219/1/5 220/1/5
f 222/5/5 220/5/5 216/5/5
f 222/5/5 221/5/5 220/5/5
f 223/5/5 217/5/5 221/5/5
f 223/5/5 221/5/5 222/5/5
f 226/7/5 225/7/5 224/7/5
f 227/7/5 225/7/5 226/7/5
f 230/7/5 229/7/5 228/7/5
f 231/7/5 229/7/5 230/7/5
f 234/3/5 233/3/5 232/3/5
f 235/3/5 233/3/5 234/3/5
f 238/3/5 237/3/5 236/3/5
f 239/3/5 237/3/5 238/3/5
f 242/3/5 241/3/5 240/3/5
f 243/3/5 241/3/5 242/3/5
f 244/3/6 245/3/6 246/3/6
f 246/3/6 245/3/6 247/3/6
f 248/5/6 249/5/6 250/5/6
f 250/5/6 249/5/6 251/5/6
f 252/6/6 253/6/6 255/6/6
f 253/6/6 254/6/6 255/6/6
f 255/6/6 254/6/6 256/6/6
f 256/6/6 254/6/6 257/6/6
f 257/6/6 254/6/6 258/6/6
f 252/6/6 255/6/6 259/6/6
f 258/6/6 254/6/6 260/6/6
f 252/6/6 259/6/6 261/6/6
f 259/6/6 260/6/6 261/6/6
f 260/6/6 254/6/6 262/6/6
f 261/6/6 260/6/6 262/6/6
f 262/6/6 254/6/6 263/6/6
f 263/6/6 254/6/6 264/6/6
f 265/7/6 266/7/6 267/7/6
f 267/7/6 266/7/6 268/7/6
f 269/6/6 270/6/6 271/6/6
f 271/6/6 270/6/6 272/6/6
f 273/7/6 274/7/6 275/7/6
f 275/7/6 274/7/6 276/7/6
f 273/7/6 275/7/6 277/7/6
f 277/7/6 275/7/6 278/7/6
f 279/3/6 280/3/6 281/3/6
f 281/3/6 280/3/6 282/3/6
f 283/3/6 284/3/6 285/3/6
f 285/3/6 284/3/6 286/3/6
f 287/3/6 288/3/6 289/3/6
f 289/3/6 288/3/6 290/3/6
